<?xml version="1.0" standalone="no"?>
<!DOCTYPE svg PUBLIC "-//W3C//DTD SVG 20010904//EN"
 "http://www.w3.org/TR/2001/REC-SVG-20010904/DTD/svg10.dtd">
<svg version="1.0" xmlns="http://www.w3.org/2000/svg"
 width="500.000000pt" height="500.000000pt" viewBox="0 0 500.000000 500.000000"
 preserveAspectRatio="xMidYMid meet">

<g transform="translate(0.000000,500.000000) scale(0.100000,-0.100000)"
fill="#000000" stroke="none">
<path d="M0 2500 l0 -2500 2500 0 2500 0 0 2500 0 2500 -2500 0 -2500 0 0
-2500z m1800 245 c0 -184 0 -186 25 -210 30 -31 83 -33 116 -6 23 19 24 23 27
210 l3 191 60 0 59 0 0 -187 c0 -106 -5 -205 -11 -228 -45 -163 -339 -168
-387 -7 -7 24 -12 113 -12 231 l0 191 60 0 60 0 0 -185z m593 -16 c20 -5 46
-20 57 -31 l20 -22 22 22 c52 48 119 51 174 7 l29 -23 3 -141 4 -141 -56 0
-56 0 0 105 c0 92 -3 108 -20 125 -11 11 -27 20 -35 20 -8 0 -24 -9 -35 -20
-17 -17 -20 -33 -20 -125 l0 -105 -55 0 -55 0 0 99 c0 55 -3 107 -6 116 -11
27 -53 38 -80 20 -23 -15 -24 -21 -24 -125 l0 -110 -55 0 -55 0 0 165 0 165
55 0 c44 0 55 -3 55 -16 0 -15 2 -15 23 -1 19 12 36 19 67 26 3 0 22 -4 43
-10z m621 -17 c43 -25 68 -64 73 -116 l6 -46 -117 0 c-108 0 -116 -1 -116 -19
0 -46 79 -66 121 -32 23 19 24 19 61 0 21 -11 38 -23 38 -28 0 -5 -13 -20 -30
-34 -90 -76 -228 -54 -291 47 -26 41 -22 134 7 173 59 78 165 102 248 55z
m374 17 l31 -11 -22 -44 c-21 -44 -22 -45 -63 -38 -35 5 -46 2 -63 -15 -19
-19 -21 -33 -21 -121 l0 -100 -60 0 -60 0 2 163 3 162 53 3 c47 3 54 1 59 -18
5 -19 7 -19 22 -6 17 16 58 34 77 35 6 1 25 -4 42 -10z m-468 -544 l0 -85 -55
0 -55 0 0 85 0 85 55 0 55 0 0 -85z m-1414 15 c15 -22 28 -40 30 -40 2 0 15
18 29 40 14 22 30 40 35 40 6 0 10 -31 10 -70 0 -56 -3 -70 -15 -70 -11 0 -15
11 -15 38 l-1 37 -17 -27 c-9 -16 -21 -28 -27 -28 -6 0 -18 12 -27 28 l-17 27
-1 -37 c0 -27 -4 -38 -15 -38 -12 0 -15 14 -15 70 0 39 4 70 10 70 5 0 22 -18
36 -40z m194 -4 c0 -48 20 -79 45 -70 8 4 16 16 16 28 1 11 2 35 3 51 1 19 7
30 16 30 20 0 20 -96 1 -119 -20 -24 -77 -21 -95 6 -16 22 -22 99 -9 111 15
16 23 4 23 -37z m234 38 c28 -11 17 -24 -20 -24 -45 0 -41 -18 6 -34 68 -22
41 -81 -32 -74 -17 2 -33 9 -36 16 -3 10 4 12 31 7 52 -10 58 12 8 32 -31 12
-41 21 -41 39 0 34 43 54 84 38z m106 -24 c0 -27 3 -30 29 -30 25 0 30 5 33
27 2 14 9 28 16 31 9 3 12 -15 12 -67 0 -56 -3 -71 -15 -71 -10 0 -15 10 -15
30 0 27 -3 30 -30 30 -27 0 -30 -3 -30 -30 0 -20 -5 -30 -15 -30 -12 0 -15 14
-15 70 0 56 3 70 15 70 10 0 15 -10 15 -30z m260 15 c0 -8 -9 -15 -20 -15 -18
0 -20 -7 -20 -55 0 -48 -2 -55 -20 -55 -18 0 -20 7 -20 55 0 48 -2 55 -20 55
-11 0 -20 7 -20 15 0 12 13 15 60 15 47 0 60 -3 60 -15z m150 -55 c19 -42 25
-66 18 -69 -6 -2 -17 4 -23 13 -15 20 -71 21 -79 1 -3 -8 -12 -15 -21 -15 -14
0 -14 4 0 35 8 19 22 51 30 71 22 50 41 41 75 -36z m184 49 c33 -26 35 -73 4
-107 l-23 -24 22 4 c12 1 22 -1 23 -7 2 -22 -47 -14 -92 15 -41 26 -48 35 -48
63 0 37 7 49 35 65 29 17 49 15 79 -9z"/>
<path d="M2870 2641 c-16 -30 -14 -31 50 -31 33 0 60 4 60 9 0 39 -91 57 -110
22z"/>
<path d="M2396 2185 c-10 -26 -7 -35 9 -35 17 0 19 18 6 38 -7 11 -10 10 -15
-3z"/>
<path d="M2562 2198 c-18 -18 -15 -56 6 -66 9 -6 27 -6 40 -1 38 14 24 79 -18
79 -9 0 -21 -5 -28 -12z"/>
</g>
</svg>
